<svg xmlns="http://www.w3.org/2000/svg" xmlns:xlink="http://www.w3.org/1999/xlink" id="visual" viewBox="0 0 1512 200" width="1512" height="200" version="1.1"><rect x="0" y="0" width="1512" height="200" fill="#fafafa"/><path d="M0 160L25.2 166C50.3 172 100.7 184 151 184.2C201.3 184.3 251.7 172.7 302.2 143.7C352.7 114.7 403.3 68.3 453.8 51.8C504.3 35.3 554.7 48.7 605 48.3C655.3 48 705.7 34 756 28.7C806.3 23.3 856.7 26.7 907 48.8C957.3 71 1007.7 112 1058.2 126.8C1108.7 141.7 1159.3 130.3 1209.8 119.3C1260.3 108.3 1310.7 97.7 1361 101.8C1411.3 106 1461.7 125 1486.8 134.5L1512 144L1512 201L1486.8 201C1461.7 201 1411.3 201 1361 201C1310.7 201 1260.3 201 1209.8 201C1159.3 201 1108.7 201 1058.2 201C1007.7 201 957.3 201 907 201C856.7 201 806.3 201 756 201C705.7 201 655.3 201 605 201C554.7 201 504.3 201 453.8 201C403.3 201 352.7 201 302.2 201C251.7 201 201.3 201 151 201C100.7 201 50.3 201 25.2 201L0 201Z" fill="#3D3F51" stroke-linecap="round" stroke-linejoin="miter"/></svg>