<?xml version="1.0" encoding="utf-8"?>
<svg viewBox="-315.804 63.016 1512 190" width="1512" height="190" xmlns="http://www.w3.org/2000/svg">
  <path d="M -315.804 253.016 L -290.604 249.216 C -265.504 245.316 -215.104 237.716 -164.804 235.516 C -114.504 233.316 -64.104 236.716 -13.604 239.716 C 36.896 242.716 87.496 245.316 137.996 231.316 C 188.496 217.316 238.896 186.716 289.196 159.716 C 339.496 132.716 389.896 109.316 440.196 113.516 C 490.496 117.716 540.896 149.316 591.196 177.716 C 641.496 206.016 691.896 231.016 742.396 235.216 C 792.896 239.316 843.496 222.716 893.996 222.216 C 944.496 221.716 994.896 237.316 1045.196 223.716 C 1095.496 210.016 1145.896 167.016 1170.996 145.516 L 1196.196 124.016 L 1196.196 63.016 L 1170.996 63.016 C 1145.896 63.016 1095.496 63.016 1045.196 63.016 C 994.896 63.016 944.496 63.016 893.996 63.016 C 843.496 63.016 792.896 63.016 742.396 63.016 C 691.896 63.016 641.496 63.016 591.196 63.016 C 540.896 63.016 490.496 63.016 440.196 63.016 C 389.896 63.016 339.496 63.016 289.196 63.016 C 238.896 63.016 188.496 63.016 137.996 63.016 C 87.496 63.016 36.896 63.016 -13.604 63.016 C -64.104 63.016 -114.504 63.016 -164.804 63.016 C -215.104 63.016 -265.504 63.016 -290.604 63.016 L -315.804 63.016 L -315.804 253.016 Z" fill="#3D3F51" stroke-linecap="round" stroke-linejoin="miter" transform="matrix(1, 0, 0, 1, 1.1368683772161603e-13, 0)"/>
</svg>