<svg xmlns="http://www.w3.org/2000/svg" xmlns:xlink="http://www.w3.org/1999/xlink" id="visual" viewBox="0 0 1512 200" width="1512" height="200" version="1.1"><rect x="0" y="0" width="1512" height="200" fill="#fafafa"/><path d="M0 190L25.2 186.2C50.3 182.3 100.7 174.7 151 172.5C201.3 170.3 251.7 173.7 302.2 176.7C352.7 179.7 403.3 182.3 453.8 168.3C504.3 154.3 554.7 123.7 605 96.7C655.3 69.7 705.7 46.3 756 50.5C806.3 54.7 856.7 86.3 907 114.7C957.3 143 1007.7 168 1058.2 172.2C1108.7 176.3 1159.3 159.7 1209.8 159.2C1260.3 158.7 1310.7 174.3 1361 160.7C1411.3 147 1461.7 104 1486.8 82.5L1512 61L1512 0L1486.8 0C1461.7 0 1411.3 0 1361 0C1310.7 0 1260.3 0 1209.8 0C1159.3 0 1108.7 0 1058.2 0C1007.7 0 957.3 0 907 0C856.7 0 806.3 0 756 0C705.7 0 655.3 0 605 0C554.7 0 504.3 0 453.8 0C403.3 0 352.7 0 302.2 0C251.7 0 201.3 0 151 0C100.7 0 50.3 0 25.2 0L0 0Z" fill="#3D3F51" stroke-linecap="round" stroke-linejoin="miter"/></svg>