<svg xmlns="http://www.w3.org/2000/svg" xmlns:xlink="http://www.w3.org/1999/xlink" id="visual" viewBox="0 0 1509 200" width="1509" height="200" version="1.1"><rect x="0" y="0" width="1509" height="200" fill="#FAFAFA"/><path d="M0 33L36 54.7C72 76.3 144 119.7 215.8 146.5C287.7 173.3 359.3 183.7 431.2 181.5C503 179.3 575 164.7 646.8 143.2C718.7 121.7 790.3 93.3 862.2 78.7C934 64 1006 63 1077.8 67.2C1149.7 71.3 1221.3 80.7 1293.2 93.8C1365 107 1437 124 1473 132.5L1509 141L1509 0L1473 0C1437 0 1365 0 1293.2 0C1221.3 0 1149.7 0 1077.8 0C1006 0 934 0 862.2 0C790.3 0 718.7 0 646.8 0C575 0 503 0 431.2 0C359.3 0 287.7 0 215.8 0C144 0 72 0 36 0L0 0Z" fill="#3D3F51" stroke-linecap="round" stroke-linejoin="miter"/></svg>